<svg xmlns="http://www.w3.org/2000/svg" viewBox="0 0 512 512" role="img" aria-label="BrewBook app icon">
  <defs>
    <linearGradient id="bg" x1="0" y1="0" x2="1" y2="1">
      <stop offset="0" stop-color="#7A4C2A"/>
      <stop offset="1" stop-color="#3E2114"/>
    </linearGradient>
    <linearGradient id="panel" x1="0" y1="0" x2="0" y2="1">
      <stop offset="0" stop-color="#FFF9E8"/>
      <stop offset="1" stop-color="#F2DFAF"/>
    </linearGradient>
    <linearGradient id="coffee" x1="0" y1="0" x2="0" y2="1">
      <stop offset="0" stop-color="#C8822E"/>
      <stop offset="1" stop-color="#7A3E12"/>
    </linearGradient>
    <linearGradient id="book" x1="0" y1="0" x2="0" y2="1">
      <stop offset="0" stop-color="#512B18"/>
      <stop offset="1" stop-color="#2E160C"/>
    </linearGradient>
    <filter id="shadow" x="-20%" y="-20%" width="140%" height="140%">
      <feDropShadow dx="0" dy="16" stdDeviation="18" flood-color="#210F08" flood-opacity="0.28"/>
    </filter>
  </defs>

  <rect width="512" height="512" rx="112" fill="url(#bg)"/>
  <rect x="36" y="36" width="440" height="440" rx="86" fill="url(#panel)"/>
  <rect x="52" y="52" width="408" height="408" rx="74" fill="#FFF7E0" opacity="0.58"/>

  <g filter="url(#shadow)">
    <path d="M151 274c38 8 75 25 98 58c7 10 12 22 14 35c2-13 7-25 14-35c23-33 60-50 98-58l38-8l-10 116c-1 13-11 23-24 23c-42 1-76 6-101 18c-8 4-14 10-15 19c-1-9-7-15-15-19c-25-12-59-17-101-18c-13 0-23-10-24-23l-10-116l38 8z" fill="url(#book)"/>
    <path d="M119 252c56 6 108 35 137 82c-2 27-2 49-2 69c-27-38-75-59-123-62l-12-89z" fill="#5A2F1B" opacity="0.92"/>
    <path d="M393 252c-56 6-108 35-137 82c2 27 2 49 2 69c27-38 75-59 123-62l12-89z" fill="#3B1D10" opacity="0.96"/>
    <path d="M151 244c45 10 84 37 105 79c21-42 60-69 105-79" fill="none" stroke="#F6D99E" stroke-width="14" stroke-linecap="round"/>
    <path d="M256 318c0 35 0 63 0 92" fill="none" stroke="#F6D99E" stroke-width="12" stroke-linecap="round"/>
  </g>

  <g filter="url(#shadow)">
    <path d="M163 199h166v47c0 50-41 91-91 91h-5c-39 0-70-31-70-70v-68z" fill="url(#coffee)"/>
    <ellipse cx="246" cy="203" rx="83" ry="28" fill="#D99A43"/>
    <ellipse cx="246" cy="203" rx="58" ry="18" fill="#FFF6DD" opacity="0.95"/>
    <path d="M207 199c23 2 39 13 49 33c10-20 26-31 49-33" fill="none" stroke="#D99A43" stroke-width="14" stroke-linecap="round"/>
    <path d="M331 224h28c27 0 49 22 49 49s-22 49-49 49h-22v-28h22c12 0 22-10 22-22s-10-22-22-22h-28z" fill="#6A3517"/>
  </g>

  <g>
    <path d="M238 181c-34-32 1-60 30-78c27-17 23-44 14-62c43 28 55 68 16 98c-23 18-47 25-60 42z" fill="#C17A24" opacity="0.9"/>
    <path d="M280 188c-16-31 17-49 43-64c20-12 25-31 22-48c31 34 21 68-14 88c-19 10-37 16-51 24z" fill="#D29139" opacity="0.88"/>
  </g>

  <path d="M354 168c31-22 64-19 92-16c-8 29-31 58-76 67c-1-18-2-34-16-51z" fill="#66753B"/>
</svg>
