<svg xmlns="http://www.w3.org/2000/svg" viewBox="0 0 512 512" role="img" aria-label="BrewBook app icon">
  <defs>
    <linearGradient id="bg" x1="0" y1="0" x2="1" y2="1">
      <stop offset="0" stop-color="#FFF8ED"/>
      <stop offset="1" stop-color="#F1D6B3"/>
    </linearGradient>
    <filter id="shadow" x="-20%" y="-20%" width="140%" height="140%">
      <feDropShadow dx="0" dy="12" stdDeviation="16" flood-color="#6B3F24" flood-opacity="0.22"/>
    </filter>
  </defs>
  <rect width="512" height="512" rx="116" fill="url(#bg)"/>
  <circle cx="256" cy="256" r="178" fill="#FFF3E0" opacity="0.72"/>
  <g filter="url(#shadow)">
    <path d="M142 205h176v92c0 55-45 100-100 100h-2c-41 0-74-33-74-74V205Z" fill="#6B3F24"/>
    <path d="M318 232h31c34 0 61 27 61 61s-27 61-61 61h-42v-37h42c13 0 24-11 24-24s-11-24-24-24h-31v-37Z" fill="#6B3F24"/>
    <path d="M171 244h112v58c0 34-28 62-62 62h-1c-27 0-49-22-49-49v-71Z" fill="#FFF8ED" opacity="0.92"/>
    <rect x="166" y="148" width="130" height="34" rx="17" fill="#8B5E3C"/>
    <path d="M184 129c0-18 22-18 22-36M231 129c0-18 22-18 22-36M276 129c0-18 22-18 22-36" fill="none" stroke="#8B5E3C" stroke-width="18" stroke-linecap="round"/>
    <rect x="288" y="319" width="112" height="92" rx="20" fill="#FFFFFF"/>
    <rect x="311" y="342" width="17" height="17" rx="4" fill="#8B5E3C"/>
    <rect x="337" y="345" width="41" height="11" rx="5.5" fill="#8B5E3C" opacity="0.72"/>
    <rect x="311" y="375" width="17" height="17" rx="4" fill="#8B5E3C"/>
    <rect x="337" y="378" width="41" height="11" rx="5.5" fill="#8B5E3C" opacity="0.72"/>
  </g>
</svg>
