<svg xmlns="http://www.w3.org/2000/svg" viewBox="0 0 512 512" role="img" aria-label="BrewBook premium app icon">
  <defs>
    <linearGradient id="bg" x1="0" y1="0" x2="1" y2="1">
      <stop offset="0" stop-color="#2A1711"/>
      <stop offset="0.52" stop-color="#5A3524"/>
      <stop offset="1" stop-color="#C79A63"/>
    </linearGradient>
    <linearGradient id="card" x1="0" y1="0" x2="1" y2="1">
      <stop offset="0" stop-color="#FFF7EA"/>
      <stop offset="1" stop-color="#E9C99A"/>
    </linearGradient>
    <filter id="softShadow" x="-25%" y="-25%" width="150%" height="150%">
      <feDropShadow dx="0" dy="18" stdDeviation="20" flood-color="#120806" flood-opacity="0.32"/>
    </filter>
  </defs>

  <rect width="512" height="512" rx="124" fill="url(#bg)"/>
  <circle cx="395" cy="112" r="108" fill="#FFF1D3" opacity="0.10"/>
  <circle cx="116" cy="416" r="128" fill="#FFFFFF" opacity="0.07"/>

  <g filter="url(#softShadow)">
    <rect x="116" y="116" width="280" height="280" rx="72" fill="url(#card)"/>
    <rect x="140" y="140" width="232" height="232" rx="56" fill="#FFF8ED" opacity="0.34"/>
  </g>

  <g fill="none" stroke="#3A2118" stroke-linecap="round" stroke-linejoin="round">
    <path d="M186 232h112v54c0 43-35 78-78 78h-2c-18 0-32-14-32-32V232Z" stroke-width="22"/>
    <path d="M298 252h28c28 0 50 22 50 50s-22 50-50 50h-24" stroke-width="20"/>
    <path d="M196 194h92" stroke-width="20"/>
    <path d="M212 164c0-18 20-18 20-36" stroke-width="16" opacity="0.88"/>
    <path d="M258 164c0-18 20-18 20-36" stroke-width="16" opacity="0.88"/>
  </g>

  <g fill="none" stroke="#3A2118" stroke-linecap="round" stroke-linejoin="round">
    <path d="M286 335l26 26 56-66" stroke-width="20"/>
  </g>
</svg>
